<?xml version="1.0" standalone="no"?>
<!DOCTYPE svg PUBLIC "-//W3C//DTD SVG 20010904//EN"
 "http://www.w3.org/TR/2001/REC-SVG-20010904/DTD/svg10.dtd">
<svg version="1.0" xmlns="http://www.w3.org/2000/svg"
 width="300.000000pt" height="279.000000pt" viewBox="0 0 300.000000 279.000000"
 preserveAspectRatio="xMidYMid meet">
<metadata>
Created by potrace 1.10, written by Peter Selinger 2001-2011
</metadata>
<g transform="translate(0.000000,279.000000) scale(0.100000,-0.100000)"
fill="#000000" stroke="none">
<path d="M1360 2560 c-19 -4 -69 -13 -111 -21 l-77 -13 -9 -58 c-8 -51 -8 -58
6 -54 31 10 147 26 183 26 35 0 37 2 43 38 4 20 9 49 11 65 3 15 2 27 -3 26
-4 -1 -24 -5 -43 -9z m-10 -59 c0 -12 -27 -21 -82 -27 -53 -6 -65 8 -20 24 34
13 102 15 102 3z"/>
<path d="M1514 2533 c-38 -91 -40 -83 24 -83 147 0 370 -55 491 -121 222 -122
376 -308 459 -553 l20 -59 48 0 c58 -1 58 -5 7 133 -100 268 -277 466 -529
593 -136 68 -267 104 -446 122 l-58 5 -16 -37z m207 -29 c155 -29 311 -93 430
-177 68 -48 199 -167 199 -180 0 -4 9 -18 21 -30 17 -18 65 -97 108 -177 35
-66 39 -80 20 -80 -5 0 -7 5 -4 10 4 6 2 16 -3 23 -6 7 -27 44 -47 82 -38 72
-116 173 -182 236 -161 153 -392 253 -635 275 -43 4 -78 10 -78 14 0 25 54 26
171 4z"/>
<path d="M939 2436 c-129 -66 -162 -89 -258 -184 -141 -140 -219 -248 -310
-429 -28 -57 -51 -104 -51 -106 0 -2 26 -3 57 -1 l58 2 36 64 c127 229 321
430 534 555 43 26 63 43 60 53 -2 8 -5 32 -7 53 -3 48 -11 47 -119 -7z m74
-35 c-2 -10 -19 -25 -37 -33 -56 -27 -199 -140 -282 -224 -93 -94 -177 -203
-235 -304 -22 -38 -47 -70 -55 -70 -19 0 -5 34 57 137 148 244 331 425 499
494 57 23 59 23 53 0z"/>
<path d="M1488 2374 c-16 -3 -28 -10 -28 -15 0 -5 0 -11 0 -14 0 -3 66 -7 147
-9 135 -3 156 -6 243 -35 215 -72 377 -214 493 -431 24 -47 50 -102 57 -122
11 -37 30 -52 30 -24 0 25 -60 156 -111 241 -120 201 -292 331 -508 385 -74
19 -269 33 -323 24z"/>
<path d="M1290 2335 c-115 -34 -130 -42 -130 -66 0 -12 5 -19 13 -16 6 3 58
20 114 39 78 25 103 37 103 51 0 21 -6 21 -100 -8z"/>
<path d="M1010 2218 c-136 -85 -291 -217 -372 -318 -33 -42 -118 -174 -118
-185 0 -3 13 -5 29 -5 24 0 34 9 67 65 82 141 219 279 375 377 49 31 95 58
101 60 11 4 2 49 -10 47 -4 0 -36 -19 -72 -41z"/>
<path d="M1463 2244 c-7 -3 -13 -12 -13 -20 0 -11 20 -14 98 -14 199 0 384
-79 527 -225 50 -51 124 -154 156 -217 17 -33 33 -57 36 -54 11 11 -28 94 -80
169 -128 185 -271 293 -452 342 -61 17 -249 30 -272 19z"/>
<path d="M1345 2223 c-27 -7 -75 -23 -106 -34 -47 -17 -56 -24 -52 -40 3 -11
11 -18 17 -15 72 30 119 47 157 58 36 10 45 17 40 29 -5 15 -11 15 -56 2z"/>
<path d="M1036 2086 c-96 -66 -231 -197 -297 -290 -27 -38 -49 -73 -49 -78 0
-4 11 -8 24 -8 19 0 34 13 62 58 51 78 214 238 297 291 46 30 66 49 62 58 -3
8 -5 17 -5 19 0 10 -20 -1 -94 -50z"/>
<path d="M1455 2102 c-3 -3 -5 -11 -5 -19 0 -10 20 -13 83 -13 103 0 188 -20
283 -66 92 -45 197 -140 253 -229 36 -56 61 -81 61 -59 0 12 -89 141 -130 187
-49 56 -148 128 -211 155 -71 31 -186 53 -260 51 -38 -1 -71 -4 -74 -7z"/>
<path d="M1370 2088 c-19 -5 -60 -18 -91 -30 -46 -16 -56 -23 -52 -39 3 -10 6
-19 8 -19 1 0 28 11 59 25 31 14 74 28 96 31 30 5 40 11 40 25 0 21 -8 22 -60
7z"/>
<path d="M1105 1970 c-69 -47 -255 -229 -255 -250 0 -5 10 -10 23 -10 15 0 45
25 94 79 63 69 135 131 211 181 20 13 21 17 10 32 -12 15 -19 12 -83 -32z"/>
<path d="M1405 1969 c-16 -6 -54 -17 -82 -27 -38 -11 -53 -21 -53 -34 0 -23 8
-23 64 1 25 11 61 23 81 27 25 4 35 11 35 25 0 21 -2 22 -45 8z"/>
<path d="M1460 1963 c0 -16 11 -18 83 -20 143 -3 297 -75 389 -184 42 -50 67
-65 48 -29 -6 12 -40 51 -75 89 -102 108 -226 161 -374 161 -61 0 -71 -2 -71
-17z"/>
<path d="M1175 1869 c-62 -42 -165 -137 -165 -151 0 -23 49 -2 98 43 31 28 77
66 104 83 42 28 46 35 35 50 -11 15 -17 13 -72 -25z"/>
<path d="M1435 1855 c-91 -19 -127 -35 -122 -54 4 -18 4 -18 67 5 133 47 303
18 408 -70 16 -15 38 -26 48 -26 29 0 -49 74 -115 108 -54 29 -148 53 -200 51
-14 -1 -53 -7 -86 -14z"/>
<path d="M1227 1768 c-37 -24 -67 -46 -67 -50 0 -18 59 -6 91 18 19 14 40 29
48 33 9 6 11 13 4 25 -8 14 -17 11 -76 -26z"/>
<path d="M1485 1754 c-11 -2 -44 -9 -72 -15 -29 -6 -55 -14 -57 -18 -3 -4 69
-7 159 -7 90 0 161 4 159 8 -11 17 -149 41 -189 32z"/>
<path d="M940 1048 c0 -19 140 -147 200 -182 95 -56 161 -80 171 -64 16 24 9
34 -28 48 -60 21 -170 91 -231 146 -52 46 -112 74 -112 52z"/>
<path d="M1080 1049 c0 -14 82 -80 131 -105 53 -27 130 -56 134 -52 2 2 5 12
9 23 5 17 0 23 -29 34 -20 7 -65 32 -100 56 -42 28 -78 44 -105 47 -22 2 -40
1 -40 -3z"/>
<path d="M1250 1050 c0 -13 103 -59 161 -71 81 -17 191 -5 266 31 35 16 63 34
63 39 0 13 -50 5 -105 -16 -49 -19 -148 -19 -241 1 -99 21 -144 26 -144 16z"/>
<path d="M1875 1052 c-11 -2 -35 -17 -53 -33 -66 -58 -141 -84 -285 -99 -63
-7 -110 -7 -132 -1 -33 9 -35 8 -35 -14 0 -20 6 -24 43 -27 172 -19 335 28
443 125 50 46 54 57 19 49z"/>
<path d="M275 1028 c17 -57 73 -170 118 -236 67 -98 243 -273 375 -372 98 -74
305 -190 317 -178 3 3 2 29 -1 59 l-7 54 -79 38 c-102 50 -216 136 -352 267
-141 136 -222 248 -256 353 -11 37 -12 37 -66 37 -53 0 -55 -1 -49 -22z m115
-113 c17 -35 36 -70 43 -77 7 -7 20 -25 29 -39 41 -64 239 -255 343 -331 5 -4
24 -18 40 -31 17 -13 65 -43 107 -67 42 -24 75 -47 72 -51 -4 -7 -30 5 -153
76 -87 51 -276 219 -376 334 -65 75 -155 219 -155 249 0 26 20 0 50 -63z"/>
<path d="M516 993 c14 -31 34 -69 45 -84 10 -15 19 -30 19 -34 0 -13 88 -121
146 -178 76 -75 159 -135 267 -190 84 -43 87 -44 103 -26 10 11 15 20 13 22
-2 1 -22 11 -44 21 -182 82 -472 357 -515 487 -10 30 -18 39 -36 39 l-23 0 25
-57z"/>
<path d="M647 1013 c35 -87 153 -222 267 -306 27 -20 96 -60 153 -88 95 -46
107 -50 129 -39 33 18 30 26 -13 40 -58 19 -176 86 -261 149 -97 72 -178 161
-209 229 -21 45 -28 52 -53 52 l-29 0 16 -37z"/>
<path d="M790 1041 c0 -17 91 -130 138 -172 72 -64 159 -120 242 -156 88 -38
96 -39 103 -13 4 17 -7 26 -70 55 -134 62 -287 178 -333 254 -19 31 -31 41
-52 41 -16 0 -28 -4 -28 -9z"/>
<path d="M1937 1006 c-34 -54 -91 -112 -132 -133 -76 -40 -327 -79 -401 -63
-38 9 -58 -1 -51 -25 9 -27 200 -33 296 -9 131 33 246 113 330 229 32 44 32
45 9 45 -16 0 -31 -13 -51 -44z"/>
<path d="M2082 985 c-57 -116 -139 -188 -264 -232 -100 -34 -324 -66 -415 -59
-67 5 -73 4 -73 -13 0 -28 30 -35 160 -34 141 1 251 23 350 69 137 64 214 138
288 277 31 57 31 57 9 57 -18 0 -29 -14 -55 -65z"/>
<path d="M2221 984 c-137 -292 -397 -430 -791 -419 -47 1 -98 5 -115 9 -24 6
-32 3 -42 -13 -11 -18 -8 -20 60 -33 151 -28 356 -8 498 48 180 70 355 239
434 419 23 52 24 55 6 55 -14 0 -28 -19 -50 -66z"/>
<path d="M2358 1018 c-29 -84 -124 -257 -169 -309 -99 -115 -233 -207 -354
-245 -51 -16 -94 -19 -290 -19 -126 0 -251 3 -277 7 -40 6 -47 5 -50 -10 -5
-27 61 -43 212 -49 201 -8 408 26 531 87 151 77 299 235 397 427 68 133 70
143 37 143 -20 0 -28 -7 -37 -32z"/>
<path d="M2527 1043 c-3 -5 -8 -24 -12 -43 -4 -19 -21 -69 -37 -110 -120 -305
-387 -506 -751 -565 -125 -20 -431 -31 -481 -17 l-39 11 6 -56 c3 -31 10 -60
16 -66 18 -18 276 -13 371 7 518 107 783 281 936 611 27 58 74 204 74 228 0 9
-78 9 -83 0z m-903 -783 c-31 -31 -342 -41 -352 -11 -4 11 7 13 49 9 30 -3 95
-2 144 2 146 11 170 11 159 0z"/>
</g>
</svg>
